<?xml version="1.0" encoding="utf-8"?>
<svg width="400px" height="400px" viewBox="0 0 400 400" version="1.1" xmlns:xlink="http://www.w3.org/1999/xlink" xmlns="http://www.w3.org/2000/svg">
  <defs>
    <path d="M0 0L321 0L321 321L0 321L0 0Z" id="path_1" />
    <rect width="400" height="400" id="artboard_1" />
    <clipPath id="clip_1">
      <use xlink:href="#artboard_1" clip-rule="evenodd" />
    </clipPath>
    <clipPath id="mask_1">
      <use xlink:href="#path_1" />
    </clipPath>
  </defs>
  <g id="Artboard" clip-path="url(#clip_1)">
    <path d="M37.999 13L363.001 13Q363.615 13 364.228 13.0301Q364.841 13.0602 365.451 13.1204Q366.062 13.1805 366.669 13.2706Q367.276 13.3606 367.878 13.4803Q368.48 13.6001 369.075 13.7492Q369.671 13.8983 370.258 14.0764Q370.845 14.2546 371.423 14.4613Q372.001 14.6681 372.568 14.9029Q373.135 15.1378 373.689 15.4002Q374.244 15.6626 374.785 15.9518Q375.327 16.2411 375.853 16.5566Q376.379 16.8721 376.89 17.2131Q377.4 17.554 377.893 17.9196Q378.386 18.2852 378.86 18.6745Q379.335 19.0638 379.789 19.476Q380.244 19.8881 380.678 20.322Q381.112 20.756 381.524 21.2107Q381.936 21.6654 382.326 22.1398Q382.715 22.6142 383.08 23.1071Q383.446 23.6 383.787 24.1103Q384.128 24.6206 384.443 25.1469Q384.759 25.6733 385.048 26.2146Q385.337 26.7558 385.6 27.3105Q385.862 27.8653 386.097 28.4323Q386.332 28.9993 386.539 29.5771Q386.745 30.1549 386.924 30.7422Q387.102 31.3294 387.251 31.9247Q387.4 32.52 387.52 33.1219Q387.639 33.7238 387.729 34.3309Q387.819 34.9379 387.88 35.5487Q387.94 36.1594 387.97 36.7724Q388 37.3853 388 37.999L388 363.001Q388 363.615 387.97 364.228Q387.94 364.841 387.88 365.451Q387.819 366.062 387.729 366.669Q387.639 367.276 387.52 367.878Q387.4 368.48 387.251 369.075Q387.102 369.671 386.924 370.258Q386.745 370.845 386.539 371.423Q386.332 372.001 386.097 372.568Q385.862 373.135 385.6 373.689Q385.337 374.244 385.048 374.785Q384.759 375.327 384.443 375.853Q384.128 376.379 383.787 376.89Q383.446 377.4 383.08 377.893Q382.715 378.386 382.326 378.86Q381.936 379.335 381.524 379.789Q381.112 380.244 380.678 380.678Q380.244 381.112 379.789 381.524Q379.335 381.936 378.86 382.326Q378.386 382.715 377.893 383.08Q377.4 383.446 376.89 383.787Q376.379 384.128 375.853 384.443Q375.327 384.759 374.785 385.048Q374.244 385.337 373.689 385.6Q373.135 385.862 372.568 386.097Q372.001 386.332 371.423 386.539Q370.845 386.745 370.258 386.924Q369.671 387.102 369.075 387.251Q368.48 387.4 367.878 387.52Q367.276 387.639 366.669 387.729Q366.062 387.819 365.451 387.88Q364.841 387.94 364.228 387.97Q363.615 388 363.001 388L37.999 388Q37.3853 388 36.7724 387.97Q36.1594 387.94 35.5487 387.88Q34.9379 387.819 34.3309 387.729Q33.7238 387.639 33.1219 387.52Q32.52 387.4 31.9247 387.251Q31.3294 387.102 30.7422 386.924Q30.1549 386.745 29.5771 386.539Q28.9993 386.332 28.4323 386.097Q27.8653 385.862 27.3105 385.6Q26.7558 385.337 26.2146 385.048Q25.6733 384.759 25.1469 384.443Q24.6206 384.128 24.1103 383.787Q23.6 383.446 23.1071 383.08Q22.6142 382.715 22.1398 382.326Q21.6654 381.936 21.2107 381.524Q20.756 381.112 20.322 380.678Q19.8881 380.244 19.476 379.789Q19.0638 379.335 18.6745 378.86Q18.2852 378.386 17.9196 377.893Q17.554 377.4 17.2131 376.89Q16.8721 376.379 16.5566 375.853Q16.2411 375.327 15.9518 374.785Q15.6626 374.244 15.4002 373.689Q15.1378 373.135 14.9029 372.568Q14.6681 372.001 14.4613 371.423Q14.2546 370.845 14.0764 370.258Q13.8983 369.671 13.7492 369.075Q13.6001 368.48 13.4803 367.878Q13.3606 367.276 13.2706 366.669Q13.1805 366.062 13.1204 365.451Q13.0602 364.841 13.0301 364.228Q13 363.615 13 363.001L13 37.999Q13 37.3853 13.0301 36.7724Q13.0602 36.1594 13.1204 35.5487Q13.1805 34.9379 13.2706 34.3309Q13.3606 33.7238 13.4803 33.1219Q13.6001 32.52 13.7492 31.9247Q13.8983 31.3294 14.0764 30.7422Q14.2546 30.1549 14.4613 29.5771Q14.6681 28.9993 14.9029 28.4323Q15.1378 27.8653 15.4002 27.3105Q15.6626 26.7558 15.9518 26.2146Q16.2411 25.6733 16.5566 25.1469Q16.8721 24.6206 17.2131 24.1103Q17.554 23.6 17.9196 23.1071Q18.2852 22.6142 18.6745 22.1398Q19.0638 21.6654 19.476 21.2107Q19.8881 20.756 20.322 20.322Q20.756 19.8881 21.2107 19.476Q21.6654 19.0638 22.1398 18.6745Q22.6142 18.2852 23.1071 17.9196Q23.6 17.554 24.1103 17.2131Q24.6206 16.8721 25.1469 16.5566Q25.6733 16.2411 26.2146 15.9518Q26.7558 15.6626 27.3105 15.4002Q27.8653 15.1378 28.4323 14.9029Q28.9993 14.6681 29.5771 14.4613Q30.1549 14.2546 30.7422 14.0764Q31.3294 13.8983 31.9247 13.7492Q32.52 13.6001 33.1219 13.4803Q33.7238 13.3606 34.3309 13.2706Q34.9379 13.1805 35.5487 13.1204Q36.1594 13.0602 36.7724 13.0301Q37.3853 13 37.999 13L37.999 13Z" id="Rectangle" fill="#2D2D2D" fill-rule="evenodd" stroke="none" />
    <g id="svg" transform="translate(40 40)" style="mix-blend-mode: overlay;">
      <path d="M0 0L321 0L321 321L0 321L0 0Z" id="Background" fill="none" fill-rule="evenodd" stroke="none" />
      <g clip-path="url(#mask_1)">
        <path d="M150.562 0.0534514C145.614 0.187201 140.732 0.588451 135.85 1.32408C128.627 2.04633 121.405 5.67095 113.447 9.2822C103.322 13.6157 93.1835 17.9626 83.7809 18.6848C67.8646 23.7406 62.8089 30.9765 58.4754 36.7545C58.4754 37.4767 57.7531 38.199 57.7531 38.199C51.9617 49.7683 51.2395 61.3377 53.4062 72.9071C55.573 80.143 58.462 86.67 60.6287 93.1702C65.7112 106.92 70.767 119.92 72.9337 135.114C75.1139 139.461 77.2672 145.239 78.7117 151.03C82.323 162.6 85.961 175.614 96.8081 185.739L96.8884 185.698C97.1158 185.953 97.2896 186.233 97.5304 186.461L97.8112 186.327L97.5437 178.516C106.211 165.489 118.489 156.808 135.85 153.197C142.805 151.726 150.308 151.191 158.092 151.485C166.196 151.704 174.255 152.762 182.141 154.642C201.668 159.697 216.849 169.836 217.584 178.516C217.946 183.251 218.119 187.812 218.012 192.373C218.012 193.229 217.959 194.085 217.919 194.954L219.738 195.863C220.833 195.231 221.774 194.363 222.493 193.322L222.533 193.282L222.613 193.175C223.148 192.453 223.617 191.517 224.085 190.58C224.352 190.085 224.593 189.43 224.834 188.855C227.576 182.676 229.675 173.434 232.029 162.6C232.752 158.989 233.501 156.086 234.21 153.197C240.001 140.183 247.946 128.614 255.904 117.753C268.918 99.6972 281.209 83.0453 279.765 63.5178C255.904 17.2269 222.627 9.99107 205.266 6.37982C202.377 5.65757 200.946 5.65757 198.779 4.93532C180.883 1.67182 165.422 -0.361183 150.562 0.0534415L150.562 0.0534514ZM218.013 192.373C218.089 187.985 217.946 183.597 217.585 179.225C216.862 169.822 201.668 159.698 181.419 154.642C173.757 152.873 165.949 151.816 158.093 151.485C151.117 151.251 144.138 151.826 137.294 153.197C120.656 156.809 107.655 165.502 99.6972 178.503L100.379 197.642C109.3 192.894 123.558 185.953 142.377 184.267C143.246 184.201 144.196 184.201 145.105 184.147C146.67 183.973 148.663 183.559 151.044 183.559C172.538 183.559 194.753 190.701 216.274 205.601C216.795 201.936 217.076 198.258 217.21 194.593L217.812 194.901C217.839 194.058 217.999 193.202 218.012 192.359L218.013 192.373ZM152.426 1.11203C154.84 -0.818209 157.371 5.93762 159.805 6.42018C155.327 5.45506 150.868 7.86786 146.43 14.1411C148.435 11.2458 150.421 2.55971 152.426 1.11203L152.426 1.11203ZM139.635 1.73862C138.618 1.859 137.589 1.9125 136.572 2.05962C125.645 3.6245 112.845 11.4355 99.7909 16.0365C104.539 14.271 109.341 12.0775 114.169 10.0177C121.391 6.4065 129.35 2.78187 135.85 2.05962C137.107 1.87237 138.378 1.88575 139.635 1.73862L139.635 1.73862ZM136.572 4.94878C138.739 4.94878 141.641 4.94878 143.808 5.67103C142.185 5.29954 140.506 5.23602 138.859 5.48379C140.303 5.59063 141.726 5.89669 143.086 6.39328C150.843 19.7683 137.388 76.9999 134.004 115.386C136.091 129.122 138.204 142.083 140.197 151.766C130.794 127.905 121.392 85.9478 119.934 53.4064C119.211 40.3925 119.947 28.8098 122.849 20.1428C125.725 11.4357 130.072 5.65766 136.559 4.93541L136.572 4.94878ZM178.516 8.55998C167.682 36.7812 166.238 90.2812 165.516 106.92C164.793 114.142 165.516 130.059 166.238 141.628C166.238 144.517 166.96 147.406 166.96 150.308C166.96 147.406 166.238 145.239 166.238 142.35C160.446 98.9616 153.211 46.9061 178.516 8.57335L178.516 8.55998ZM223.349 13.6291C219.738 42.5458 204.557 56.2953 199.501 84.5166C198.057 106.933 195.155 132.961 194.432 155.377C193.71 132.961 194.432 109.1 198.044 85.2255C201.655 60.6422 209.613 36.0456 223.349 13.6291L223.349 13.6291ZM87.3388 22.0286C90.3229 21.9946 93.2024 23.1272 95.3638 25.1851L95.1765 25.0915C96.9554 26.322 98.7343 27.8868 100.433 30.2275C97.7044 43.1745 103.844 70.7805 100.968 92.6887C101.984 113.393 101.918 135.221 112.323 152.328C99.2158 132.132 96.5943 106.345 94.6415 82.2963C93.1302 67.7176 91.913 54.249 88.4355 43.4687C86.5095 39.3893 84.8377 35.7781 83.2995 32.4745C82.9785 31.9796 82.711 31.4178 82.3633 30.9497C81.0528 29.5877 80.2827 27.7954 80.1965 25.9073C80.1965 25.1851 80.9054 23.7406 81.641 23.7406C82.3633 23.0183 83.7944 22.9916 84.5167 22.2693C85.442 22.0916 86.3833 22.0109 87.3254 22.0286L87.3388 22.0286ZM69.3226 30.2275C68.5201 30.495 68.0921 30.7758 67.4501 31.0433C69.8175 30.5886 72.2919 31.4981 74.4051 35.2966C71.8906 47.2271 80.2366 80.357 80.1296 103.563C84.316 128.28 87.4859 155.056 101.155 171.976C85.2389 153.906 78.7386 122.087 73.6829 95.3236C69.336 74.3516 65.7114 56.2686 58.4889 50.4906C57.7666 49.0461 57.0444 48.3105 57.0444 46.866C57.0444 44.6992 57.0444 41.7968 58.4889 38.9078C54.784 47.3876 53.072 55.854 53.5401 64.3337C52.9927 55.575 54.6964 46.8219 58.4889 38.9078C58.4889 38.1856 59.2111 38.1856 59.2111 37.4633C59.3716 37.2493 59.6258 36.9952 59.7996 36.7812C60.572 35.4482 61.5991 34.2803 62.8224 33.3438C63.558 32.528 64.1064 31.7388 64.949 30.9096C64.2401 31.6586 63.772 32.3808 63.1568 33.1165C63.5179 32.8757 63.8523 32.6216 64.2803 32.421C65.5582 30.9859 67.4016 30.1841 69.3226 30.2275L69.3226 30.2275ZM68.4575 37.6106C67.0115 40.7314 65.5656 42.0689 64.1196 45.6356L77.4946 32.2606L68.4575 37.6106L68.4575 37.6106ZM261.695 47.5881L261.628 47.7888C262.137 47.7219 262.632 47.5614 263.14 47.5881C262.645 47.5614 262.123 47.7219 261.602 47.8556C250.059 83.1924 236.363 118.529 222.667 153.866C222.659 153.88 222.651 153.894 222.64 153.906C221.477 160.125 219.511 165.73 215.418 169.822C221.209 163.309 221.918 153.893 222.64 142.323C223.363 131.476 223.363 119.907 229.154 108.324C229.154 107.615 229.167 106.92 229.863 106.197L229.876 106.171C231.174 101.449 232.578 96.9553 234.116 92.5549C239.707 75.3012 249.363 50.2097 261.04 47.8824C261.254 47.8022 261.495 47.6283 261.709 47.5882L261.695 47.5881ZM112.002 216.809L107.669 219.034C109.836 223.506 111.28 226.866 112.725 227.958C114.264 229.353 116.009 230.119 117.794 230.184C118.516 230.184 119.947 230.184 120.669 229.071L131.53 223.506C132.252 223.506 132.974 222.394 133.697 222.394C135.141 222.394 135.863 222.394 137.308 223.506L140.932 229.071L144.544 227.958C143.099 224.619 140.932 221.301 139.488 220.188C138.043 219.076 136.586 217.922 134.419 217.922L132.974 217.922L121.392 224.619L119.238 224.619C117.78 224.619 116.349 224.619 115.627 223.506C114.905 222.394 113.447 220.168 112.002 216.809L112.002 216.809ZM77.2807 224.045C73.6695 226.211 68.6003 229.836 61.3645 232.725C54.142 235.614 48.3506 238.516 45.4482 241.405C42.5726 244.294 41.1281 247.183 41.1281 250.086C41.1281 251.53 41.8503 252.266 43.2948 252.988C44.0171 253.71 45.475 253.71 46.1972 254.433C56.3221 258.766 66.447 263.822 75.8362 268.878C77.2941 269.6 78.7386 271.058 79.4742 271.78C80.1965 272.502 80.9053 272.502 81.6276 272.502C83.0855 272.502 85.2388 271.793 86.6833 270.335C88.1278 268.891 88.8635 267.433 88.8635 265.988C88.8635 264.544 88.1278 263.835 86.6833 263.113C86.6833 263.113 80.892 260.211 70.7671 255.877C65.3272 253.521 60.0225 250.864 54.8774 247.919C57.0443 244.308 61.3778 241.405 67.8915 238.516C75.114 235.627 80.1965 232.725 82.3498 230.558C83.0721 229.836 83.0721 229.114 83.0721 228.391C82.8925 227.301 82.3892 226.29 81.6276 225.489C80.6375 224.588 79.3549 224.075 78.0163 224.045L77.2807 224.045ZM227.709 224.045C226.623 224.224 225.616 224.727 224.82 225.489C224.098 226.934 223.362 227.669 223.362 228.391L223.362 229.114C225.529 231.28 228.445 232.725 232.779 234.169C236.39 234.892 240.001 236.35 243.626 237.072C247.959 238.516 250.848 240.683 252.306 243.572L252.306 244.308C252.306 245.03 250.848 246.474 247.959 247.919C246.515 248.641 243.612 250.821 240.001 253.71C236.39 255.877 234.21 258.03 232.043 258.753C229.154 260.211 226.987 261.655 226.265 263.113C225.543 263.835 225.543 264.544 225.543 265.266C225.543 266.711 226.265 266.711 226.987 268.155C227.709 269.6 229.154 269.627 229.876 269.627C230.598 269.627 231.321 268.878 232.043 268.878C235.654 266.711 240.737 263.822 246.515 258.753C253.015 253.697 258.084 250.086 260.986 247.919C263.875 246.474 265.307 245.017 265.307 242.836C265.307 242.128 265.307 240.683 263.862 239.961C258.806 234.169 251.584 230.572 242.903 227.669C241.459 226.947 239.292 226.211 234.945 225.489C232.779 224.767 230.598 224.045 229.154 224.045L227.709 224.045ZM187.932 234.878C184.321 234.878 181.419 235.627 179.252 237.794C176.363 239.961 175.641 243.572 176.363 247.919C176.363 251.53 177.807 254.419 179.974 257.321C182.141 260.21 185.043 261.668 187.932 261.668C190.099 261.668 191.543 260.919 193.724 260.197C197.335 258.03 198.793 254.419 198.793 247.919C198.793 242.85 197.335 239.238 195.168 237.085C193.048 235.609 190.515 234.841 187.932 234.892L187.932 234.878ZM127.905 235.614C124.294 235.614 121.405 236.35 119.238 238.516C116.336 240.683 115.627 244.294 116.349 248.641C116.349 252.253 117.78 255.142 119.96 258.031C122.141 260.92 125.016 262.391 127.905 262.391C130.085 262.391 131.53 261.642 133.697 260.92C137.308 258.753 138.752 255.142 138.752 248.641C138.752 242.85 137.308 239.239 135.141 237.808C133.025 236.334 130.497 235.566 127.919 235.614L127.905 235.614ZM130.97 244.308C135.007 244.308 137.682 246.983 137.682 250.995C137.682 255.008 133.645 257.683 130.995 257.683C126.957 257.683 124.307 255.008 124.307 250.995C124.307 246.983 126.957 244.308 130.995 244.308L130.97 244.308ZM189.552 245.03C193.565 245.03 196.265 247.68 196.265 251.717C196.265 254.392 193.565 258.405 189.577 258.405C185.54 258.405 182.89 255.73 182.89 251.717C182.89 247.68 185.54 245.03 189.577 245.03L189.552 245.03ZM150.335 273.224L152.502 278.949C153.233 280.766 154.213 282.389 155.391 283.737C156.113 284.691 157.571 286.599 159.002 286.599L160.46 286.599C161.904 286.599 162.613 286.599 163.335 285.645C164.058 284.691 165.529 284.691 166.251 283.737L168.405 280.875C169.127 279.921 169.849 278.949 169.849 277.995C170.571 277.041 170.571 276.087 171.294 275.133C171.294 274.178 172.016 273.224 172.016 273.224C171.294 275.133 169.849 277.041 169.127 278.949C167.682 279.903 166.973 281.829 165.516 281.829C164.084 282.783 162.627 282.783 161.182 282.783C159.738 282.783 158.293 282.783 157.571 281.829C156.126 281.829 155.391 280.875 154.668 279.921L152.502 277.041C151.779 276.087 151.057 274.178 150.335 273.224L150.335 273.224ZM138.752 286.974C123.558 286.974 114.169 307.224 92.4748 289.141C86.6968 324.584 129.363 327.473 147.446 312.279C159.751 301.446 156.113 286.252 138.752 286.974L138.752 286.974ZM177.085 286.974C159.738 286.252 156.113 301.446 168.418 312.293C186.488 327.473 229.141 324.571 223.363 289.141C201.668 307.224 193.001 286.974 177.085 286.974L177.085 286.974Z" id="Shape" fill="#DADADA" fill-rule="evenodd" stroke="none" />
      </g>
    </g>
    <g id="Codechef-Cards" transform="translate(81.5 137)">
      <g id="Codechef" fill="#DADADA">
        <path d="M76.12 55.8275C79.42 55.8275 82.39 54.4525 84.48 51.9225L84.48 54.3425C84.48 54.7825 84.81 55.1125 85.25 55.1125L87.78 55.1125C88.22 55.1125 88.55 54.7825 88.55 54.3425L88.55 14.1375C88.55 13.6975 88.22 13.3675 87.78 13.3675L85.03 13.3675C84.59 13.3675 84.26 13.6975 84.26 14.1375L84.26 26.4025C82.115 24.4225 79.2 23.2675 76.175 23.2675C69.74 23.2675 64.625 28.4375 64.625 34.7625L64.625 44.3325C64.625 50.6575 69.795 55.8275 76.12 55.8275ZM159.665 55.1125L156.915 55.1125C156.475 55.1125 156.145 54.7825 156.145 54.3425L156.145 14.1375C156.145 13.6975 156.475 13.3675 156.915 13.3675L159.665 13.3675C160.105 13.3675 160.435 13.6975 160.435 14.1375L160.435 27.8325C162.36 24.8075 165.55 23.2675 169.29 23.2675C175.56 23.2675 179.74 27.4475 179.74 33.6625L179.74 54.3425C179.74 54.7825 179.41 55.1125 178.97 55.1125L176.22 55.1125C175.78 55.1125 175.45 54.7825 175.45 54.3425L175.45 34.4875C175.45 29.7025 172.645 27.2825 168.63 27.2825C163.845 27.2825 160.435 30.5825 160.435 36.3575L160.435 54.3425C160.435 54.7825 160.105 55.1125 159.665 55.1125ZM225.17 55.1125L222.42 55.1125C221.98 55.1125 221.65 54.7825 221.65 54.3425L221.65 28.0525L217.47 28.0525C217.03 28.0525 216.7 27.7225 216.7 27.2825L216.7 24.7525C216.7 24.3125 217.03 23.9825 217.47 23.9825L221.65 23.9825L221.65 21.7825C221.65 17.1625 224.62 13.3675 230.12 13.3675L234.52 13.3675C234.96 13.3675 235.29 13.6975 235.29 14.1375L235.29 16.5025C235.29 16.9425 234.96 17.2725 234.52 17.2725L230.065 17.2725C227.59 17.2725 225.94 19.0325 225.94 21.5625L225.94 23.9825L233.42 23.9825C233.86 23.9825 234.19 24.3125 234.19 24.7525L234.19 27.2825C234.19 27.7225 233.86 28.0525 233.42 28.0525L225.94 28.0525L225.94 54.3425C225.94 54.7825 225.61 55.1125 225.17 55.1125ZM26.895 51.8675C24.365 54.3975 20.955 55.8275 16.995 55.8275C9.735 55.8275 3.85 49.8325 3.85 42.4075L3.85 29.5375C3.85 22.1125 9.735 16.1175 16.995 16.1175C20.955 16.1175 24.365 17.5475 26.895 20.0775C27.28 20.4625 27.28 20.9575 26.895 21.4525C26.51 21.8925 26.07 22.4425 25.41 23.1025C24.97 23.4325 24.31 23.4875 23.815 22.9925C22.055 21.2875 19.745 20.3525 17.05 20.3525C12.265 20.3525 8.415 24.5875 8.415 29.5375L8.415 42.4075C8.415 47.3575 12.265 51.5925 17.05 51.5925C19.745 51.5925 22.055 50.6575 23.815 48.9525C24.31 48.4575 24.97 48.5125 25.41 48.8425C26.07 49.5025 26.51 50.0525 26.895 50.4925C27.28 50.9875 27.28 51.4825 26.895 51.8675ZM57.475 43.8375C57.475 50.4925 52.14 55.8275 45.54 55.8275C38.94 55.8275 33.605 50.4925 33.605 43.8375L33.605 35.2575C33.605 28.6025 38.94 23.2675 45.54 23.2675C52.14 23.2675 57.475 28.6025 57.475 35.2575L57.475 43.8375ZM116.985 55.1125L109.01 55.1125C102.41 55.1125 97.075 49.7775 97.075 43.1225L97.075 35.2575C97.075 28.6025 102.41 23.2675 109.01 23.2675C115.61 23.2675 120.945 28.6025 120.945 35.2575L120.945 38.9975C120.945 40.0975 120.065 40.9775 118.965 40.9775L101.365 40.9775L101.365 43.3975C101.365 47.6325 104.775 51.0425 109.01 51.0425L116.985 51.0425C117.425 51.0425 117.755 51.3725 117.755 51.8125L117.755 54.3425C117.755 54.7825 117.425 55.1125 116.985 55.1125ZM139.645 55.8275C142.89 55.8275 145.75 54.5625 147.84 52.5275C148.06 52.3075 148.17 52.0325 148.17 51.7575Q148.17 51.2625 147.84 50.9325C147.4 50.4375 147.015 50.0525 146.575 49.6675Q146.163 49.3375 145.75 49.3375C145.42 49.3375 145.145 49.4475 144.87 49.7225C143.495 50.9875 141.68 51.7575 139.645 51.7575C135.41 51.7575 132 48.3475 132 44.1125L132 34.9825C132 30.7475 135.41 27.3375 139.645 27.3375C141.68 27.3375 143.495 28.1075 144.87 29.3725C145.145 29.6475 145.42 29.7575 145.75 29.7575Q146.163 29.7575 146.575 29.4275C147.07 28.9875 147.455 28.6025 147.84 28.1625Q148.17 27.75 148.17 27.3375C148.17 27.0625 148.06 26.7875 147.84 26.5675C145.75 24.5325 142.89 23.2675 139.645 23.2675C133.045 23.2675 127.71 28.6025 127.71 35.2575L127.71 43.8375C127.71 50.4925 133.045 55.8275 139.645 55.8275ZM199.375 55.1125L207.35 55.1125C207.79 55.1125 208.12 54.7825 208.12 54.3425L208.12 51.8125C208.12 51.3725 207.79 51.0425 207.35 51.0425L199.375 51.0425C195.14 51.0425 191.73 47.6325 191.73 43.3975L191.73 40.9775L209.33 40.9775C210.43 40.9775 211.31 40.0975 211.31 38.9975L211.31 35.2575C211.31 28.6025 205.975 23.2675 199.375 23.2675C192.775 23.2675 187.44 28.6025 187.44 35.2575L187.44 43.1225C187.44 49.7775 192.775 55.1125 199.375 55.1125ZM37.895 44.1125C37.895 48.3475 41.305 51.7575 45.54 51.7575C49.775 51.7575 53.185 48.3475 53.185 44.1125L53.185 34.9825C53.185 30.7475 49.775 27.3375 45.54 27.3375C41.305 27.3375 37.895 30.7475 37.895 34.9825L37.895 44.1125ZM76.56 51.7575C72.325 51.7575 68.915 48.3475 68.915 44.1125L68.915 34.9825C68.915 30.7475 72.325 27.3375 76.56 27.3375C80.85 27.3375 84.26 30.7475 84.26 34.9825L84.26 44.1125C84.26 48.3475 80.85 51.7575 76.56 51.7575ZM101.365 34.9825L101.365 37.0175L116.655 37.0175L116.655 34.9825C116.655 30.7475 113.245 27.3375 109.01 27.3375C104.775 27.3375 101.365 30.7475 101.365 34.9825ZM191.73 37.0175L191.73 34.9825C191.73 30.7475 195.14 27.3375 199.375 27.3375C203.61 27.3375 207.02 30.7475 207.02 34.9825L207.02 37.0175L191.73 37.0175Z" />
      </g>
      <g id="Cards" fill="#DADADA">
        <path d="M147.538 127.97C150.837 127.97 153.807 126.595 155.898 124.065L155.898 126.485C155.898 126.925 156.227 127.255 156.667 127.255L159.197 127.255C159.637 127.255 159.967 126.925 159.967 126.485L159.967 86.2804C159.967 85.8404 159.637 85.5104 159.197 85.5104L156.447 85.5104C156.008 85.5104 155.678 85.8404 155.678 86.2804L155.678 98.5454C153.533 96.5654 150.617 95.4104 147.592 95.4104C141.158 95.4104 136.042 100.58 136.042 106.905L136.042 116.475C136.042 122.8 141.212 127.97 147.538 127.97ZM63.1675 127.97C67.1275 127.97 70.5375 126.54 73.0675 124.01C73.4525 123.625 73.4525 123.13 73.0675 122.635C72.6825 122.195 72.2425 121.645 71.5825 120.985C71.1425 120.655 70.4825 120.6 69.9875 121.095C68.2275 122.8 65.9175 123.735 63.2225 123.735C58.4375 123.735 54.5875 119.5 54.5875 114.55L54.5875 101.68C54.5875 96.7304 58.4375 92.4954 63.2225 92.4954C65.9175 92.4954 68.2275 93.4304 69.9875 95.1354C70.4825 95.6304 71.1425 95.5754 71.5825 95.2454C72.2425 94.5854 72.6825 94.0354 73.0675 93.5954C73.4525 93.1004 73.4525 92.6054 73.0675 92.2204C70.5375 89.6904 67.1275 88.2604 63.1675 88.2604C55.9075 88.2604 50.0225 94.2554 50.0225 101.68L50.0225 114.55C50.0225 121.975 55.9075 127.97 63.1675 127.97ZM88.5775 127.97C92.8125 127.97 96.4975 125.99 98.7525 122.69L98.7525 126.485C98.7525 126.925 99.0825 127.255 99.5225 127.255L101.833 127.255C102.272 127.255 102.603 126.925 102.603 126.485L102.603 105.365C102.603 99.3704 98.0375 95.4104 91.3275 95.4104C86.3775 95.4104 82.5825 97.6654 80.5475 101.075C80.4375 101.295 80.3825 101.46 80.3825 101.625C80.3825 102.01 80.5475 102.285 80.8775 102.56L82.3625 103.55C82.5825 103.715 82.8575 103.825 83.0775 103.825C83.5175 103.825 83.9025 103.55 84.1775 103.11C85.4975 100.91 87.9175 99.4804 91.2175 99.4804C95.2325 99.4804 98.4225 101.79 98.4225 105.365L98.4225 105.805C98.4225 107.95 97.5425 108.995 95.3975 109.325C93.0325 109.655 90.8875 109.93 88.2475 110.315C82.4175 111.14 78.9525 114.44 78.9525 119.28C78.9525 124.505 82.9675 127.97 88.5775 127.97ZM188.128 118.675C188.128 124.395 183.837 127.805 177.348 127.805C174.048 127.805 170.582 126.925 168.217 125.22C167.942 125.055 167.832 124.67 167.942 124.34L169.098 122.03C169.262 121.755 169.537 121.59 169.813 121.59C169.977 121.59 170.087 121.645 170.253 121.7C172.342 122.965 174.762 123.9 177.567 123.9C181.363 123.9 183.837 122.14 183.837 118.95C183.837 115.98 181.417 115.1 177.348 113.56C171.572 111.415 167.942 109.6 167.942 104.045C167.942 98.1054 172.397 95.4104 177.952 95.4104C181.087 95.4104 184.223 96.3454 186.643 97.9404C186.917 98.1054 187.027 98.4904 186.863 98.8204L185.762 101.075C185.598 101.46 185.158 101.68 184.717 101.405C182.572 100.14 180.317 99.3154 177.952 99.3154C174.378 99.3154 172.232 100.855 172.232 103.825C172.232 107.51 175.202 108.335 178.723 109.6C183.893 111.47 188.128 113.12 188.128 118.675ZM125.758 127.255L110.522 127.255C110.083 127.255 109.753 126.925 109.753 126.485L109.753 123.955C109.753 123.515 110.083 123.185 110.522 123.185L115.088 123.185L115.088 100.03L110.522 100.03C110.083 100.03 109.753 99.7004 109.753 99.2604L109.753 96.8954C109.753 96.4554 110.083 96.1254 110.522 96.1254L117.398 96.1254C118.498 96.1254 119.378 97.0054 119.378 98.1054L119.378 100.855L122.568 98.3804C125.318 96.2904 126.638 95.7954 128.398 95.7954L130.048 95.7954C130.543 95.7954 130.818 96.1254 130.818 96.5654L130.818 99.2604C130.818 99.7004 130.488 100.03 130.048 100.03L128.838 100.03C127.133 100.03 125.978 100.415 122.623 103.11L119.378 105.695L119.378 123.185L125.758 123.185C126.198 123.185 126.528 123.515 126.528 123.955L126.528 126.485C126.528 126.925 126.198 127.255 125.758 127.255ZM147.977 123.9C143.742 123.9 140.333 120.49 140.333 116.255L140.333 107.125C140.333 102.89 143.742 99.4804 147.977 99.4804C152.268 99.4804 155.678 102.89 155.678 107.125L155.678 116.255C155.678 120.49 152.268 123.9 147.977 123.9ZM89.0175 124.12C85.4975 124.12 83.0775 122.14 83.0775 119.115C83.0775 116.255 84.9475 114.495 88.5775 113.945C93.0875 113.285 95.2325 112.955 98.5875 112.57L98.5875 114.825C98.5875 118.84 94.7375 124.12 89.0175 124.12Z" />
      </g>
    </g>
  </g>
</svg>